<?xml version="1.0" encoding="iso-8859-1"?>
<!-- Generator: Adobe Illustrator 16.0.0, SVG Export Plug-In . SVG Version: 6.00 Build 0)  -->
<!DOCTYPE svg PUBLIC "-//W3C//DTD SVG 1.1//EN" "http://www.w3.org/Graphics/SVG/1.1/DTD/svg11.dtd">
<svg version="1.1" id="Capa_1" xmlns="http://www.w3.org/2000/svg" xmlns:xlink="http://www.w3.org/1999/xlink" x="0px" y="0px"
	 width="561.657px" height="561.657px" viewBox="0 0 561.657 561.657" style="enable-background:new 0 0 561.657 561.657;"
	 xml:space="preserve">
<g>
	<path d="M417.45,368.195c6.1-17.7,8.6-37.3,6.1-58.101c6.7-11,9.2-23.899,6.7-38.6c-11-56.3-81.4-76.5-130.4-84.5
		c-52.6-8-121.8,0.6-145.7,56.9c-4.3,9.8-4.9,18.4-3.1,26.3c-0.6,1.2-1.2,2.4-1.2,3.7c-12.2-12.2-28.2-20.8-47.1-17.7
		c-20.8,3.7-36.1,20.2-44.1,38.6c-8,18.4-6.7,39.8,7.3,55.7c7.3,8.6,19,13.5,30,15.3c14.1,2.4,35.5,3.7,47.1-6.1
		c1.2-0.601,1.8-1.8,1.8-3.101c1.8,6.7,4.3,12.9,7.3,19c-55.7,1.2-102.2,58.101-64.9,110.801c36.1,50.8,122.4,59.399,178.7,66.699
		c60,8,170.7,25.7,211.1-36.699C514.75,457.495,486.55,379.195,417.45,368.195z M138.95,349.195c-11-4.3-25.7,0.6-37.3-1.2
		c-8.6-1.2-16.5-4.3-22.6-10.4c-9.2-9.8-7.3-24.5-2.4-36.1c4.9-12.2,15.9-22.6,29.4-25.7c9.2-2.4,18.4,0.6,26.9,5.5
		c-16.5,1.2-34.9,12.9-38.6,28.2c-6.1,25.1,26.9,26.9,45.3,24.5c0.6,6.1,1.8,11.6,3.1,17.7
		C141.45,350.396,140.25,349.795,138.95,349.195z M142.05,295.295c-2.4,9.8-3.1,19.601-3.1,28.8c-8-0.6-17.1-1.199-24.5-4.3
		c-1.8-1.2-4.3-3.1-4.9-3.7c-0.6-1.199-0.6-1.199,0-3.699C113.25,299.595,130.45,298.396,142.05,295.295z M250.95,207.195
		c37.899-3.1,77.7,6.1,112,22c23.3,10.4,49,34.3,44.1,59.399c-2.399,1.2-4.3,3.7-4.3,6.7c0,1.8,0,3.101,0,4.9
		c-1.2,2.399-3.1,4.3-4.9,6.7c-16.5,19.6-49.6,20.199-75.3,19c28.2-10.4,49-30.601,29.4-61.2c-27.5-43.5-101.6-45.9-140.1-19
		c-4.9,3.7-6.7,9.2-3.7,14.7c21.4,42.2,60,49,101.6,30c10.4-4.9,3.1-22.601-8-19c-26.9,10.4-52.6,11-69.8-12.9
		c31.8-15.9,72.2-9.8,98.5,14.1c30,26.9-42.2,38.6-55.7,39.2c-25.1,0.601-50.2-7.3-71.6-18.399
		C136.55,260.495,207.55,210.895,250.95,207.195z M162.25,298.995c10.4,8.6,24.5,15.3,31.2,19c49.6,23.9,110.8,34.9,165.2,28.8
		c14.1-1.8,28.8-6.7,41-14.1c-1.801,13.5-4.301,26.3-9.2,38.6c-0.601,0.601-0.601,1.2-1.2,1.8c-4.9,11-11.6,21.4-21.4,31.2
		c-25.699,25.101-64.3,30.601-97.899,27.5c-75.9-7.3-112-64.3-110.2-131C161.05,300.195,161.65,299.595,162.25,298.995z
		 M411.95,530.995c-44.101,13.5-95.5,4.9-140.8,0c-37.9-4.3-75.3-11.6-110.8-23.9c-22.6-7.3-45.3-19.6-59.4-39.199
		c-29.4-41,24.5-67.9,58.1-78.9c22,33.7,60,58.1,104.7,64.3c60,8,116.9-19,144.4-64.899c29.399,10.399,54.5,22,65.5,56.3
		C487.25,486.896,446.85,520.595,411.95,530.995z"/>
	<path d="M313.45,0.395c-8-2.4-11.601,6.7-7.3,12.2c11,14.1,26.899,22.6,27.5,42.2c0.6,23.9-34.9,36.7-52,42.8
		c-4.3,1.2-8.6,5.5-8,10.4c2.4,28.2,16.5,40.4,39.8,53.9c9.8,5.5,17.1-8,8.6-14.7c-13.5-9.8-23.3-17.1-26.3-32.4
		c25.7-9.2,50.8-24.5,58.1-52C361.15,35.895,337.85,7.095,313.45,0.395z"/>
	<path d="M225.85,149.095c-19.6-5.5-22-12.9-23.3-30.6c-0.6-9.8-3.7-17.7-11.6-23.9c-22-18.4-50.2-52-80.8-53.9
		c-6.7-0.6-8.6,8-4.9,12.2c11,13.5,30.6,22,44.7,32.4c9.8,7.3,30,19.6,33,32.4c2.4,10.4,1.8,19,7.3,28.8
		c6.7,11.6,21.4,13.5,33.7,14.7C231.35,161.295,232.05,150.895,225.85,149.095z"/>
	<path d="M498.85,70.095c-4.3-6.1-14.1-4.3-14.699,3.7c-0.601,20.8,3.699,39.8,0.6,60c-22.6-7.3-47.7-3.1-71-8.6
		c-5.5-1.2-12.2,2.4-11.6,8.6c1.199,14.1,7.3,26.3,8.6,40.4c1.2,9.2,14.7,9.8,14.7,0c0-9.8-2.4-19-3.7-28.8
		c22,3.1,45.9-1.2,64.9,10.4c5.5,3.1,12.899,0,14.699-6.1C508.05,127.695,512.95,90.895,498.85,70.095z"/>
</g>
<g>
</g>
<g>
</g>
<g>
</g>
<g>
</g>
<g>
</g>
<g>
</g>
<g>
</g>
<g>
</g>
<g>
</g>
<g>
</g>
<g>
</g>
<g>
</g>
<g>
</g>
<g>
</g>
<g>
</g>
</svg>
