<?xml version="1.0" encoding="iso-8859-1"?>
<!-- Generator: Adobe Illustrator 19.0.0, SVG Export Plug-In . SVG Version: 6.00 Build 0)  -->
<svg version="1.1" id="Layer_1" xmlns="http://www.w3.org/2000/svg" xmlns:xlink="http://www.w3.org/1999/xlink" x="0px" y="0px"
	 viewBox="0 0 512 512" style="enable-background:new 0 0 512 512;" xml:space="preserve">
<g>
	<g>
		<path d="M501.801,43.232H10.199C4.567,43.232,0,47.799,0,53.431v405.138c0,5.632,4.567,10.199,10.199,10.199h491.602v-0.001
			c5.632,0,10.199-4.567,10.199-10.199V53.431C512,47.799,507.433,43.232,501.801,43.232z M315.76,151.051V63.63h76.72v87.42
			c0,2.303,0.145,4.572,0.4,6.809c-3.236,18.469-19.378,32.553-38.759,32.553c-19.382,0-35.524-14.084-38.76-32.553
			C315.615,155.623,315.76,153.354,315.76,151.051z M217.64,151.051V63.63h76.721v87.42c0,2.303,0.145,4.572,0.4,6.809
			c-3.236,18.469-19.378,32.553-38.76,32.553s-35.524-14.084-38.76-32.553C217.495,155.623,217.64,153.354,217.64,151.051z
			 M119.52,151.051V63.63h76.72v87.42c0,2.303,0.145,4.572,0.4,6.809c-3.236,18.469-19.378,32.553-38.76,32.553
			c-19.381,0-35.523-14.084-38.759-32.553C119.376,155.623,119.52,153.354,119.52,151.051z M20.398,133.609V63.63H98.12v87.42
			c0,2.303,0.145,4.572,0.4,6.809c-3.236,18.469-19.378,32.553-38.76,32.553c-21.704,0-39.362-17.658-39.362-39.362V133.609z
			 M173.386,448.369H20.398v-70.292h152.988V448.369z M173.386,357.678H20.398v-97.912h152.988V357.678z M318.215,448.369h-124.43
			V259.766h124.43V448.369z M491.602,448.369H338.614v-70.292h152.988V448.369z M491.602,357.678H338.614v-97.912h152.988V357.678z
			 M491.602,239.368H328.414H183.586H20.398v-43.409c10.522,9.234,24.294,14.851,39.362,14.851c20.298,0,38.255-10.181,49.06-25.696
			c10.805,15.515,28.761,25.696,49.059,25.696s38.255-10.181,49.06-25.696c10.805,15.515,28.762,25.696,49.06,25.696
			c20.299,0,38.255-10.181,49.06-25.696c10.805,15.515,28.762,25.696,49.06,25.696c20.298,0,38.254-10.181,49.059-25.696
			c10.805,15.515,28.762,25.696,49.06,25.696c15.067,0,28.839-5.617,39.362-14.851V239.368z M491.602,133.609v17.442
			c0,21.704-17.658,39.362-39.362,39.362c-19.382,0-35.524-14.084-38.76-32.553c0.255-2.237,0.4-4.506,0.4-6.809V63.63h77.722
			V133.609z"/>
	</g>
</g>
<g>
	<g>
		<path d="M214.183,344.733c-5.632,0-10.199,4.567-10.199,10.199v9.179c0,5.632,4.567,10.199,10.199,10.199
			c5.632,0,10.199-4.567,10.199-10.199v-9.179C224.383,349.3,219.815,344.733,214.183,344.733z"/>
	</g>
</g>
<g>
	<g>
		<path d="M400.829,329.434h-4.08c-5.632,0-10.199,4.567-10.199,10.199s4.567,10.199,10.199,10.199h4.08
			c5.632,0,10.199-4.567,10.199-10.199S406.461,329.434,400.829,329.434z"/>
	</g>
</g>
<g>
	<g>
		<path d="M471.203,329.434h-38.757c-5.632,0-10.199,4.567-10.199,10.199s4.567,10.199,10.199,10.199h38.757
			c5.632,0,10.199-4.567,10.199-10.199S476.835,329.434,471.203,329.434z"/>
	</g>
</g>
<g>
</g>
<g>
</g>
<g>
</g>
<g>
</g>
<g>
</g>
<g>
</g>
<g>
</g>
<g>
</g>
<g>
</g>
<g>
</g>
<g>
</g>
<g>
</g>
<g>
</g>
<g>
</g>
<g>
</g>
</svg>
