<?xml version="1.0" encoding="iso-8859-1"?>
<!-- Generator: Adobe Illustrator 16.0.0, SVG Export Plug-In . SVG Version: 6.00 Build 0)  -->
<!DOCTYPE svg PUBLIC "-//W3C//DTD SVG 1.1//EN" "http://www.w3.org/Graphics/SVG/1.1/DTD/svg11.dtd">
<svg version="1.1" id="Capa_1" xmlns="http://www.w3.org/2000/svg" xmlns:xlink="http://www.w3.org/1999/xlink" x="0px" y="0px"
	 width="365.419px" height="365.419px" viewBox="0 0 365.419 365.419" style="enable-background:new 0 0 365.419 365.419;"
	 xml:space="preserve">
<g>
	<g>
		<path d="M90.454,127.963c0,4.896-1.224,10.404-4.896,14.076c-3.06,3.06,1.836,7.956,4.896,4.896
			c4.896-4.896,7.956-11.628,8.568-18.972C99.634,122.455,90.454,122.455,90.454,127.963z"/>
		<path d="M110.038,83.287c-3.06,7.956-6.12,15.912-5.508,24.48c0,4.896,7.344,4.896,7.344,0c0.612-7.956,3.06-14.076,6.732-20.808
			C122.278,81.451,113.098,76.555,110.038,83.287z"/>
		<path d="M129.01,42.283c-3.06,2.448-3.06,6.12-4.284,9.792c-0.612,3.672-1.836,7.956-3.06,11.628
			c-1.224,3.06,3.672,5.508,5.508,2.448c1.836-3.672,3.06-6.732,4.284-10.404c1.224-3.672,3.06-7.344,3.06-11.016
			C134.518,41.671,131.458,40.447,129.01,42.283z"/>
		<path d="M168.178,11.683c-4.284-4.284-8.568-7.956-14.076-11.016c-1.836-1.224-4.284-0.612-5.508,0.612
			c-6.12,7.344-10.404,17.136-9.792,26.316c0,4.284,6.12,3.672,6.12,0c0.612-6.732,3.672-12.24,7.956-17.136
			c3.06,1.836,6.12,4.284,9.18,7.344C165.73,22.087,172.462,15.967,168.178,11.683z"/>
		<path d="M189.598,34.327c-2.448-1.836-2.448-3.672-1.836-5.508c1.224-3.672-4.284-5.508-6.12-2.448
			c-1.224,1.836-1.836,3.06-1.836,5.508c0,1.836,0.612,4.284,1.836,5.508c1.836,3.06,5.508,6.732,8.568,7.344
			c3.06,0.612,5.508-1.836,4.283-4.284C193.882,37.387,192.046,36.163,189.598,34.327z"/>
		<path d="M226.318,71.047c-3.06-1.836-6.731-3.06-9.792-4.284c-3.672-1.224-7.344-3.06-11.016-4.896
			c-3.061-1.224-5.508,3.06-2.448,4.284c3.06,1.836,6.732,3.672,9.792,5.508c3.672,1.836,6.732,4.896,10.404,6.12
			C228.154,80.227,229.99,73.495,226.318,71.047z"/>
		<path d="M245.902,104.707c-3.06-3.06-6.12-5.508-9.792-8.568c-2.448-2.448-6.12,1.224-3.672,3.672
			c3.06,3.06,5.508,6.732,8.568,9.792c2.447,3.06,5.508,7.956,9.18,8.568c3.06,0.612,5.508-1.836,4.284-4.284
			C253.858,109.604,248.962,107.155,245.902,104.707z"/>
		<path d="M272.218,143.263c1.224,0-1.225-1.836-1.225-2.448c-0.611-1.224-1.836-3.06-2.447-4.284
			c-1.225-2.448-3.061-4.896-4.896-6.732c-3.06-3.06-6.731,1.224-4.284,4.284c1.836,1.836,2.448,4.896,3.672,7.344
			c0.612,1.836,1.837,3.672,2.448,5.508c-4.896,3.06-9.792,2.448-15.3,3.672c-4.896,1.224-4.896,8.568,0,9.792
			c9.18,1.836,18.36-1.836,24.479-7.956C277.114,148.771,275.89,144.487,272.218,143.263z"/>
		<path d="M113.71,169.579c-4.896,1.224-9.18,3.672-14.688,3.672c-4.896,0-7.344-5.508-7.344-9.792
			c-0.612-4.284-6.12-2.448-6.732,0.612c-0.612,7.344,1.224,15.3,9.18,18.36c7.344,2.448,17.136,0.613,23.256-3.672
			C121.666,175.699,119.218,168.355,113.71,169.579z"/>
		<path d="M152.266,170.803c-3.672-1.224-8.568,0.612-12.24-1.836c-3.06-2.448-7.344,1.836-4.284,4.284
			c3.672,3.672,11.628,6.12,16.524,4.284C155.938,176.923,155.938,172.027,152.266,170.803z"/>
		<path d="M164.506,181.207c-0.612-4.284-6.12-4.284-6.12,0c-0.612,7.345-1.836,14.688-1.836,22.032c0,6.12,9.792,6.12,9.792,0
			C166.342,195.896,165.118,188.552,164.506,181.207z"/>
		<path d="M165.118,239.959c-0.612-5.508-1.224-10.403-1.836-15.912c0-2.447-4.284-2.447-4.284,0
			c-0.612,4.896-1.224,9.181-1.836,14.076c-0.612,4.896-1.836,9.792,0.612,14.076c1.224,2.448,4.896,2.448,6.12,0
			C166.342,248.527,165.73,244.243,165.118,239.959z"/>
		<path d="M165.73,288.308c0-2.448,0-4.896-0.612-6.732c-0.612-2.448-1.224-4.896-1.836-7.344c0-1.836-3.06-1.836-3.672,0
			c0,1.836-1.224,4.284-1.836,6.12c-0.612,2.447-0.612,4.284-0.612,6.731c-0.612,4.284-1.836,10.404,1.224,13.464
			c1.224,1.225,4.284,1.225,5.508,0C166.954,296.875,165.73,291.979,165.73,288.308z"/>
		<path d="M160.834,320.743c0-3.672-4.896-3.672-5.508,0c-0.612,9.792-3.06,21.42-1.224,31.212c0.612,4.284,7.344,4.284,7.956,0
			C163.894,342.163,161.446,330.535,160.834,320.743z"/>
		<path d="M193.882,356.852c-0.612-3.061-3.672-3.672-6.12-3.061c-1.225,0-2.448,0.612-3.061,1.836
			c-0.612,0-1.224,0.612-1.224,0.612c-1.224,0.612-2.448,0.612-3.672,0.612c-0.612,0-1.836,0.611-1.836,0.611
			c-4.896,0.612-4.896,7.956,0,7.956c4.284,0,9.18-0.611,12.852-2.447C193.27,361.136,194.494,359.299,193.882,356.852z"/>
		<path d="M235.498,344.611c-4.283-0.612-7.344,0.612-11.016,1.224c-5.508,1.225-11.016,1.836-15.912,1.836
			c-3.672,0-3.672,5.509,0,6.12c8.568,0.612,23.868,4.284,29.376-4.896C237.946,347.671,237.334,344.611,235.498,344.611z"/>
		<path d="M272.218,329.923c-4.896,3.061-11.017,4.284-15.912,7.345c-4.284,2.447-0.612,8.567,3.672,6.731
			c4.896-2.448,11.016-3.06,15.912-5.508C282.01,336.043,277.726,326.863,272.218,329.923z"/>
		<path d="M279.562,311.563c-3.672-1.836-6.732-4.896-9.18-7.956c-2.448-3.061-4.284-6.732-7.345-9.181
			c-2.447-1.224-4.896,0.612-4.896,3.061c0,4.896,3.672,8.568,6.731,11.628c3.061,3.06,7.345,6.12,11.629,7.956
			C279.562,318.295,282.622,313.399,279.562,311.563z"/>
		<path d="M256.306,273.007c-1.225-1.836-1.836-3.06-3.061-4.896c-1.224-2.448-1.224-4.284-1.224-7.344
			c-0.612-5.509-8.568-5.509-8.568,0c0,3.06,1.225,6.731,3.061,9.18s4.284,4.284,6.731,6.12
			C255.082,277.291,257.53,274.843,256.306,273.007z"/>
		<path d="M240.394,236.287c-1.224-3.06-3.06-6.12-4.896-9.18c-1.836-3.061-2.447-6.732-4.283-10.404
			c-1.225-3.672-6.732-3.672-7.345,0c-1.836,8.568,6.732,15.912,11.017,22.645C237.334,243.02,242.23,239.959,240.394,236.287z"/>
		<path d="M220.81,192.835c-3.672-4.896-5.508-10.404-9.792-14.688c-4.284-4.284-9.792,1.836-6.12,6.12s6.12,9.18,10.404,12.852
			C218.362,199.567,223.258,195.896,220.81,192.835z"/>
		<path d="M229.99,162.235c-2.447-2.448-5.508-1.836-8.567-1.836c-3.673,0-6.732,0.612-10.404,0.612
			c-4.896,0.612-4.896,6.732,0,7.344c3.06,0,6.12,0.612,9.18,0.612c3.672,0,7.345,0.612,9.792-1.836
			C231.826,165.907,231.826,163.459,229.99,162.235z"/>
	</g>
</g>
<g>
</g>
<g>
</g>
<g>
</g>
<g>
</g>
<g>
</g>
<g>
</g>
<g>
</g>
<g>
</g>
<g>
</g>
<g>
</g>
<g>
</g>
<g>
</g>
<g>
</g>
<g>
</g>
<g>
</g>
</svg>
